<svg width="16" height="19" viewBox="0 0 16 19" fill="none" xmlns="http://www.w3.org/2000/svg">
<path d="M9.78582 0.792673C8.76249 -0.264223 7.06739 -0.264223 6.04405 0.792663L1.04568 5.95489C0.758605 6.25136 0.565709 6.62616 0.491272 7.03206C-0.11577 10.3425 -0.160583 13.7314 0.35873 17.0567L0.542584 18.234C0.600657 18.6059 0.920928 18.8801 1.29729 18.8801H4.78996C5.0776 18.8801 5.31079 18.6468 5.31079 18.3592V11.0676H10.5192V18.3592C10.5192 18.6468 10.7523 18.8801 11.04 18.8801H14.5326C14.9089 18.8801 15.2293 18.6059 15.2873 18.234L15.4711 17.0567C15.9904 13.7314 15.9456 10.3425 15.3386 7.03206C15.2642 6.62616 15.0712 6.25136 14.7842 5.95489L9.78582 0.792673Z" fill="white"/>
</svg>
