<svg width="25" height="27" viewBox="0 0 25 27" fill="none" xmlns="http://www.w3.org/2000/svg">
<path d="M24.7422 22.0196H22.1646V19.3983C22.1646 19.2541 22.0486 19.1361 21.9068 19.1361H20.3602C20.2185 19.1361 20.1025 19.2541 20.1025 19.3983V22.0196H17.5248C17.3831 22.0196 17.2671 22.1375 17.2671 22.2817V23.8545C17.2671 23.9986 17.3831 24.1166 17.5248 24.1166H20.1025V26.7379C20.1025 26.882 20.2185 27 20.3602 27H21.9068C22.0486 27 22.1646 26.882 22.1646 26.7379V24.1166H24.7422C24.884 24.1166 25 23.9986 25 23.8545V22.2817C25 22.1375 24.884 22.0196 24.7422 22.0196ZM8.03588 13.0548C8.00689 12.7697 7.99078 12.4814 7.99078 12.1897C7.99078 11.6688 8.03911 11.1609 8.12932 10.6661C8.15188 10.5482 8.09066 10.4269 7.98433 10.3778C7.54613 10.1779 7.14337 9.90267 6.79539 9.55535C6.38535 9.15104 6.06269 8.66425 5.848 8.12604C5.6333 7.58783 5.53128 7.01002 5.54846 6.42947C5.57746 5.37768 5.9931 4.37831 6.71806 3.6247C7.51391 2.79571 8.58363 2.34354 9.72102 2.35665C10.7489 2.36648 11.7412 2.7695 12.492 3.4838C12.7465 3.72627 12.9656 3.99495 13.1493 4.28329C13.2137 4.38487 13.3394 4.42746 13.4489 4.38814C14.016 4.18827 14.6153 4.04738 15.2307 3.98184C15.4112 3.96219 15.5143 3.76559 15.4337 3.60176C14.3866 1.4949 12.2471 0.0400881 9.77257 0.000768812C6.20253 -0.0549335 3.22536 2.9235 3.22536 6.55398C3.22536 8.61169 4.15653 10.4466 5.61612 11.6491C4.59151 12.1308 3.64745 12.7959 2.82904 13.6282C1.06336 15.4205 0.0645217 17.7862 8.05679e-05 20.3124C-0.000779415 20.3474 0.00525261 20.3822 0.0178209 20.4148C0.0303892 20.4473 0.0492396 20.477 0.0732614 20.5021C0.0972832 20.5271 0.12599 20.547 0.157691 20.5606C0.189392 20.5741 0.223446 20.5811 0.257845 20.5811H2.06542C2.20397 20.5811 2.31996 20.4697 2.32318 20.3288C2.3844 18.4284 3.14158 16.6492 4.47229 15.2992C5.41958 14.3359 6.57951 13.6675 7.84578 13.3431C7.96822 13.3071 8.05199 13.1858 8.03588 13.0548ZM22.5512 12.1897C22.5512 8.60514 19.7191 5.69223 16.207 5.63653C12.637 5.58083 9.66302 8.55926 9.66302 12.1897C9.66302 14.2475 10.5974 16.0823 12.0538 17.2849C11.0186 17.7729 10.0762 18.4428 9.26993 19.2639C7.50424 21.0562 6.50541 23.4219 6.44097 25.9449C6.44011 25.9799 6.44614 26.0147 6.45871 26.0473C6.47128 26.0798 6.49013 26.1095 6.51415 26.1345C6.53817 26.1596 6.56688 26.1795 6.59858 26.1931C6.63028 26.2066 6.66433 26.2136 6.69873 26.2136H8.50308C8.64163 26.2136 8.75762 26.1022 8.76085 25.9613C8.82207 24.0609 9.57925 22.2817 10.91 20.9317C12.2987 19.5195 14.1417 18.743 16.1071 18.743C19.6643 18.743 22.5512 15.8104 22.5512 12.1897ZM19.0231 15.1551C18.2434 15.948 17.2091 16.3838 16.1071 16.3838C15.0052 16.3838 13.9709 15.948 13.1912 15.1551C12.8021 14.7614 12.4946 14.2924 12.2871 13.7757C12.0795 13.259 11.9761 12.7052 11.9829 12.1471C11.9926 11.0724 12.4147 10.0337 13.1525 9.26373C13.9258 8.45769 14.9601 8.00879 16.0652 7.99569C17.1575 7.98586 18.2176 8.41837 18.9973 9.19493C19.7964 9.99114 20.2346 11.056 20.2346 12.1897C20.2314 13.3103 19.8028 14.3621 19.0231 15.1551Z" fill="white"/>
</svg>
